HIERARCHY
ROOT Hips
{
	OFFSET -8.665500 -1.496397 44.816700
	CHANNELS 6 Xposition Yposition Zposition Zrotation Xrotation Yrotation
	JOINT Chest
	{
		OFFSET -0.698600 0.806100 5.350899
		CHANNELS 6 Xposition Yposition Zposition Zrotation Xrotation Yrotation
		JOINT Chest2
		{
			OFFSET 0.000000 0.000000 4.409100
			CHANNELS 6 Xposition Yposition Zposition Zrotation Xrotation Yrotation
			JOINT Neck
			{
				OFFSET 0.000000 0.000001 10.248299
				CHANNELS 6 Xposition Yposition Zposition Zrotation Xrotation Yrotation
				JOINT Head
				{
					OFFSET 0.000000 0.000000 2.173897
					CHANNELS 6 Xposition Yposition Zposition Zrotation Xrotation Yrotation
					End Site
					{
						OFFSET 0.000000 0.000001 9.966400
					}
				}
			}
			JOINT LeftCollar
			{
				OFFSET 2.100600 -0.520900 6.016098
				CHANNELS 6 Xposition Yposition Zposition Zrotation Xrotation Yrotation
				JOINT LeftShoulder
				{
					OFFSET 5.536700 0.000000 0.000000
					CHANNELS 6 Xposition Yposition Zposition Zrotation Xrotation Yrotation
					JOINT LeftElbow
					{
						OFFSET 0.000000 -0.000001 -12.362099
						CHANNELS 6 Xposition Yposition Zposition Zrotation Xrotation Yrotation
						JOINT LeftWrist
						{
							OFFSET 0.000000 -0.000001 -10.273201
							CHANNELS 6 Xposition Yposition Zposition Zrotation Xrotation Yrotation
							End Site
							{
								OFFSET 0.000000 -0.000000 -2.173901
							}
						}
					}
				}
			}
			JOINT RightCollar
			{
				OFFSET -2.899500 -1.655900 6.981701
				CHANNELS 6 Xposition Yposition Zposition Zrotation Xrotation Yrotation
				JOINT RightShoulder
				{
					OFFSET -4.387501 0.000000 0.000000
					CHANNELS 6 Xposition Yposition Zposition Zrotation Xrotation Yrotation
					JOINT RightElbow
					{
						OFFSET 0.000000 -0.000001 -10.858101
						CHANNELS 6 Xposition Yposition Zposition Zrotation Xrotation Yrotation
						JOINT RightWrist
						{
							OFFSET 0.000000 -0.000001 -12.079601
							CHANNELS 6 Xposition Yposition Zposition Zrotation Xrotation Yrotation
							End Site
							{
								OFFSET 0.000000 0.000000 -2.173901
							}
						}
					}
				}
			}
		}
	}
	JOINT LeftHip
	{
		OFFSET 2.190800 0.073900 -2.522499
		CHANNELS 6 Xposition Yposition Zposition Zrotation Xrotation Yrotation
		JOINT LeftKnee
		{
			OFFSET 0.000000 -0.000002 -20.305000
			CHANNELS 6 Xposition Yposition Zposition Zrotation Xrotation Yrotation
			JOINT LeftAnkle
			{
				OFFSET 0.000000 -0.000001 -16.771700
				CHANNELS 6 Xposition Yposition Zposition Zrotation Xrotation Yrotation
				End Site
				{
					OFFSET 0.000000 -8.738000 0.000001
				}
			}
		}
	}
	JOINT RightHip
	{
		OFFSET -2.029500 0.054300 -2.705200
		CHANNELS 6 Xposition Yposition Zposition Zrotation Xrotation Yrotation
		JOINT RightKnee
		{
			OFFSET 0.000000 -0.000002 -20.030399
			CHANNELS 6 Xposition Yposition Zposition Zrotation Xrotation Yrotation
			JOINT RightAnkle
			{
				OFFSET 0.000000 -0.000001 -17.032700
				CHANNELS 6 Xposition Yposition Zposition Zrotation Xrotation Yrotation
				End Site
				{
					OFFSET 0.000000 -8.823600 0.000001
				}
			}
		}
	}
}
MOTION
Frames: 7
Frame Time: 0.041667
13.952596 -20.832399 13.709097 2700.696577 -0.604526 -42.417578 -0.698597 0.806100 5.350896 -32.174624 24.957327 4.900918 -0.000001 0.000001 4.409101 8.679711 -5.180258 -0.682536 0.000002 -0.000002 10.248298 -44.237749 -11.112906 -1.729935 0.000000 0.000001 2.173893 -5.199297 -5.791666 -8.207382 2.100601 -0.520902 6.016098 -6.439306 8.166391 -27.306284 5.536698 0.000004 -0.000001 260.292362 -46.838620 176.884674 -0.000003 0.000006 -12.362096 409.340887 -20.094990 11.966252 -0.000002 -0.000004 -10.273203 2306.913768 204.639735 -160.662852 -2.899495 -1.655903 6.981697 2.701922 11.967521 -18.998354 -4.387499 -0.000002 -0.000001 -159.660890 -517.900897 657.620831 0.000002 0.000001 -10.858097 172.003356 -159.088397 163.506997 -0.000002 0.000005 -12.079601 444.724928 13.457161 56.629662 2.190804 0.073901 -2.522501 -381.303998 -177.827363 -90.897974 -0.000004 -0.000005 -20.305017 -898.191623 3.459820 136.966221 -0.000001 0.000004 -16.771708 1529.133134 26.878357 61.352864 -2.029499 0.054297 -2.705196 -503.016767 -28.579137 -115.261218 0.000001 -0.000000 -20.030396 375.429599 189.225405 23.159474 -0.000003 -0.000001 -17.032700 -3.966223 59.965304 -153.048229
13.932397 -20.874300 13.709599 2700.628384 -0.542525 -42.355851 -0.698599 0.806102 5.350902 -31.978860 25.356642 4.979559 0.000000 0.000002 4.409103 8.717443 -5.153569 -0.669933 0.000001 0.000000 10.248301 -44.163703 -10.527138 -1.623006 0.000001 0.000001 2.173894 -5.291574 -5.838991 -8.224826 2.100601 -0.520900 6.016100 -7.017764 8.926199 -26.885260 5.536701 0.000002 -0.000001 259.596967 -46.228851 176.503057 -0.000002 0.000006 -12.362092 408.064051 -20.572284 11.806620 0.000005 -0.000004 -10.273207 2307.575805 204.846252 -160.631720 -2.899497 -1.655900 6.981699 2.777171 12.300533 -19.762942 -4.387503 -0.000004 0.000005 -159.272799 -517.624684 658.623394 0.000001 -0.000001 -10.858106 171.824064 -159.233853 163.613138 -0.000002 0.000006 -12.079602 444.682744 13.376095 56.725810 2.190803 0.073901 -2.522497 -381.273399 -178.035820 -90.759035 -0.000005 -0.000004 -20.305012 -898.310414 3.417458 136.997407 -0.000001 0.000004 -16.771706 1529.259903 26.907197 61.413263 -2.029501 0.054299 -2.705192 -502.887595 -28.646683 -115.188763 0.000001 -0.000009 -20.030399 375.359056 189.163237 23.155690 -0.000001 -0.000004 -17.032700 -3.888897 60.060449 -152.784338
13.909291 -20.921497 13.706202 2700.547296 -0.470913 -42.291234 -0.698598 0.806101 5.350891 -31.239755 25.788909 4.944342 0.000001 0.000001 4.409104 8.422645 -5.141172 -0.655224 -0.000004 0.000005 10.248298 -43.948289 -9.895283 -1.856233 0.000002 0.000001 2.173898 -5.568488 -5.902468 -8.251053 2.100596 -0.520898 6.016104 -7.569183 10.077797 -26.385383 5.536697 0.000003 0.000004 257.502831 -45.292033 174.889835 -0.000001 0.000005 -12.362097 405.966008 -20.981549 11.672047 0.000000 -0.000003 -10.273203 2308.113914 204.926521 -160.634206 -2.899502 -1.655898 6.981702 2.588111 12.462911 -20.956363 -4.387496 0.000001 -0.000001 -158.670239 -517.506276 659.894027 0.000001 -0.000002 -10.858103 171.805185 -159.301718 163.727913 -0.000000 -0.000000 -12.079602 444.641053 13.390080 56.770794 2.190807 0.073902 -2.522497 -381.266733 -178.144871 -90.607725 -0.000004 -0.000002 -20.305014 -898.355657 3.421453 137.031094 -0.000001 0.000006 -16.771708 1529.370825 26.946353 61.473157 -2.029502 0.054295 -2.705197 -502.730173 -28.695749 -115.126691 0.000001 -0.000004 -20.030394 375.319086 189.093978 23.140237 -0.000001 -0.000006 -17.032698 -3.657488 60.079689 -152.643240
13.882600 -20.967300 13.691103 2700.537242 -0.461182 -42.185495 -0.698596 0.806101 5.350901 -30.343518 26.329626 4.798100 0.000001 -0.000000 4.409107 8.041831 -5.181635 -0.640250 0.000001 0.000002 10.248298 -44.526212 -9.286674 -1.806347 -0.000001 -0.000003 2.173899 -5.335247 -5.979146 -8.159987 2.100599 -0.520900 6.016103 -7.853545 11.195922 -26.064664 5.536698 0.000003 0.000002 254.258764 -44.476870 172.741167 0.000000 0.000005 -12.362098 403.429385 -21.705083 11.646464 0.000003 -0.000004 -10.273206 2308.498809 204.921098 -160.672755 -2.899506 -1.655899 6.981704 2.091873 12.579690 -22.571566 -4.387501 0.000002 -0.000008 -157.757030 -517.692112 661.591302 -0.000002 -0.000006 -10.858101 171.743317 -159.400209 163.835379 -0.000007 0.000003 -12.079608 444.605918 13.362107 56.849256 2.190805 0.073902 -2.522504 -381.341045 -178.268484 -90.387786 -0.000005 -0.000002 -20.305012 -898.417074 3.399808 137.077840 -0.000000 0.000005 -16.771704 1529.495845 26.994443 61.565495 -2.029497 0.054295 -2.705200 -502.650341 -28.676754 -115.062815 0.000001 0.000000 -20.030401 375.309442 189.048886 23.096247 -0.000001 -0.000003 -17.032701 -3.447464 60.086588 -152.510201
13.868396 -21.030100 13.686598 2700.000225 -0.000081 -41.820142 -0.698599 0.806100 5.350900 -29.473328 26.994361 4.668622 -0.000000 -0.000000 4.409099 8.038111 -5.180325 -0.635237 0.000001 -0.000003 10.248300 -44.378061 -8.831377 -1.842713 -0.000000 -0.000002 2.173896 -5.388391 -6.026337 -8.110223 2.100598 -0.520904 6.016102 -8.447803 11.962372 -25.678976 5.536696 0.000000 -0.000006 254.029707 -43.891847 172.564169 -0.000001 0.000007 -12.362095 402.339178 -22.170096 11.444123 -0.000000 -0.000002 -10.273198 2308.751253 204.928406 -160.729214 -2.899500 -1.655903 6.981698 2.272281 12.914465 -23.449004 -4.387500 -0.000004 -0.000002 -157.133720 -517.118922 662.753363 0.000006 0.000001 -10.858108 171.882243 -159.503495 164.013483 -0.000003 -0.000000 -12.079603 444.543572 13.260969 56.945381 2.190807 0.073899 -2.522498 -380.872522 -177.883097 -89.939890 -0.000006 -0.000004 -20.305012 -898.226812 3.591944 137.083932 -0.000001 0.000009 -16.771706 1529.462623 27.088356 61.689019 -2.029501 0.054296 -2.705196 -501.743347 -28.751114 -114.736031 0.000001 0.000000 -20.030401 375.172374 188.879920 23.051467 -0.000001 -0.000004 -17.032701 -3.034722 60.076022 -152.386602
13.856694 -21.084099 13.675695 2700.000225 -0.000132 -41.540961 -0.698600 0.806099 5.350900 -29.389201 27.519652 4.660874 0.000000 0.000004 4.409105 8.080985 -5.187206 -0.633062 -0.000002 0.000003 10.248297 -44.309138 -8.311563 -1.795835 0.000003 -0.000002 2.173894 -5.347728 -6.053909 -8.191616 2.100595 -0.520897 6.016107 -9.200799 12.866517 -24.967125 5.536696 0.000003 0.000001 254.623633 -43.140373 172.931811 -0.000001 0.000004 -12.362091 401.639985 -22.652097 11.304335 -0.000003 0.000000 -10.273204 2308.986867 204.928857 -160.796778 -2.899500 -1.655898 6.981706 2.500889 13.345990 -24.453711 -4.387501 -0.000002 -0.000003 -156.563495 -516.686107 664.009736 0.000001 -0.000003 -10.858103 171.850715 -159.608844 164.119897 0.000000 0.000003 -12.079607 444.485215 13.211435 57.033845 2.190809 0.073898 -2.522498 -381.104311 -177.530810 -89.544661 -0.000004 -0.000003 -20.305014 -898.073051 3.803909 137.095871 0.000000 0.000003 -16.771706 1529.372574 27.202166 61.829256 -2.029500 0.054294 -2.705200 -501.585706 -28.809318 -114.517588 0.000000 -0.000001 -20.030396 375.064238 188.750379 22.994665 -0.000000 -0.000003 -17.032696 -2.733427 60.042909 -152.334857
13.844295 -21.134703 13.659897 2700.000225 -0.000121 -41.140159 -0.698604 0.806101 5.350899 -29.313348 28.141459 4.588429 -0.000000 -0.000000 4.409101 8.108216 -5.211220 -0.629701 0.000003 0.000003 10.248301 -44.279092 -7.758260 -1.771292 0.000001 0.000000 2.173902 -5.066088 -6.019015 -8.286239 2.100601 -0.520901 6.016105 -9.802719 13.548794 -24.632987 5.536699 -0.000001 0.000003 254.882333 -42.714377 173.189145 0.000003 0.000005 -12.362089 400.747607 -23.083768 11.155654 0.000004 -0.000001 -10.273207 2309.151447 204.972775 -160.930008 -2.899498 -1.655900 6.981697 2.466991 13.547130 -25.251346 -4.387502 0.000001 0.000002 -155.818595 -516.487430 664.941865 0.000006 -0.000003 -10.858107 171.885358 -159.741008 164.302632 -0.000006 0.000001 -12.079605 444.984912 13.507160 55.504696 2.190804 0.073897 -2.522498 -381.321948 -177.102680 -89.026721 -0.000004 -0.000002 -20.305010 -897.878964 3.998677 137.111827 -0.000001 0.000008 -16.771708 1529.293671 27.316266 61.989246 -2.029504 0.054295 -2.705201 -501.386811 -28.831031 -114.213214 0.000001 -0.000005 -20.030399 374.922088 188.627162 22.929369 -0.000000 -0.000004 -17.032701 -2.414218 59.990023 -152.346331
